<?xml version="1.0" encoding="utf-8"?>
<!-- Generator: Adobe Illustrator 16.0.0, SVG Export Plug-In . SVG Version: 6.00 Build 0)  -->
<!DOCTYPE svg PUBLIC "-//W3C//DTD SVG 1.1//EN" "http://www.w3.org/Graphics/SVG/1.1/DTD/svg11.dtd">
<svg version="1.1" id="Layer_1" xmlns="http://www.w3.org/2000/svg" xmlns:xlink="http://www.w3.org/1999/xlink" x="0px" y="0px"
	 width="488px" height="363px" viewBox="0 0 488 363" enable-background="new 0 0 488 363" xml:space="preserve">
<g id="sapin de fond">
	<path fill="#21552A" stroke="#000000" stroke-width="6" stroke-miterlimit="10" d="M226.076,33.54c0,0-49.914,64.885-57.328,76.356
		c-6.621,10.243,26.483-0.931,26.483-0.931s-27.011,61.395-42.613,72.197c-32.276,22.347,30.198,9.745,30.198,9.745
		s-37.398,66.797-51.311,76.355c-15.724,10.805,95.913,1.217,95.913,1.217s103.205,11.82,94.745-0.285
		c-10.358-14.82-43.818-74.813-43.818-74.813s43.818,6.838,27.783-6.199c-13.766-11.189-46.345-76.355-46.345-76.355
		s42.206,9.312,28.965-2.793C277.825,98.047,226.076,33.54,226.076,33.54z"/>
	<path fill="#3C160B" stroke="#000000" stroke-width="6" stroke-miterlimit="10" d="M226.323,268.57l-14.09,1.432
		c0,7.977,1.131,16.248,0.517,24.209c-0.249,3.215,0.608,8.707-0.649,11.5c-1.504,3.336-5.348,2.758-7.258,5.662
		c2.991,0.15,6.222,0.385,9.207,0.053c2.559-0.283,2.662-2.139,4.826-2.162c4.304-0.043,6.233,4.316,8.624,4.072
		c2.392-0.24,2.313-1.521,3.792-2.545c2.414-1.672,2.29-1.986,5.354-0.883c4.599,1.652,5.435,2.264,10.526,1.977
		c-1.766-2.564-2.669-1.83-4.591-4.447c-1.849-2.52-2.148-7.941-2.727-10.932c-1.732-8.961-1.29-16.205-1.29-25.439l0.036-1.404
		L226.323,268.57z"/>
</g>
<g id="pommier de fond">
	<g>
		<path fill="#7E5422" d="M107.774,182.276c0,27.046,2.64,53.608,2.2,80.652c0,12.076-0.917,26.545-3.997,38.618
			c-1.761,5.796-5.246,10.163-8.766,14.994c-2.641,3.863-11.002,6.761-12.763,10.626l-1.32,0.964
			c8.362,0.484,16.283-2.898,23.325-7.244c-0.88,9.659-1.008,5.749-2.876,12.778l0.079,5.574c8.285-5.276,6.882-15.254,16.999-16.28
			c10.727-1.087,11.764,13.383,19.686,16.28c-0.88-6.276-3.081-12.072-3.081-18.835c7.481-0.483,7.854-2.698,23.765,0
			c-24.139-10.162-28.065-14.288-27.352-39.598c0.218-7.738,1.827-87.905,1.827-95.633"/>
		<g>
			<path d="M104.524,182.276c0.067,28.521,2.638,56.956,2.151,85.489c-0.208,12.141-0.235,27.034-6.027,37.988
				c-2.592,4.902-6,9.538-10.654,12.568c-2.038,1.326-4.039,2.636-5.923,4.176c-1.554,1.271-1.493,2.031-2.582,2.826
				c-2.536,1.852-1.789,5.962,1.64,6.057c9.085,0.252,17.294-3.066,24.965-7.688c-1.63-0.936-3.26-1.871-4.89-2.807
				c-0.336,3.545-0.998,6.322-2.1,9.628c-0.975,2.924-0.74,5.682-0.697,8.725c0.033,2.302,2.797,4.266,4.89,2.807
				c3.47-2.42,5.821-5.431,7.922-9.067c2.393-4.142,5.171-7.991,10.625-6.479c3.281,0.91,5.381,5.488,7.083,8.083
				c2.001,3.051,4.344,5.989,7.774,7.463c2.724,1.17,5.245-0.704,4.774-3.671c-0.957-6.022-2.79-11.839-2.964-17.971
				c-1.083,1.083-2.167,2.167-3.25,3.25c2.821-0.215,5.563-0.831,8.364-1.158c4.826-0.563,9.791,0.265,14.537,1.042
				c3.327,0.545,6.157-4.395,2.504-5.94c-6.879-2.91-14.55-5.754-20.067-10.973c-4.608-4.359-5.402-10.822-5.679-16.836
				c-0.476-10.37,0.276-20.936,0.489-31.308c0.502-24.426,1.303-48.876,1.342-73.308c0.007-4.192-6.493-4.191-6.5,0
				c-0.041,25.654-0.887,51.328-1.417,76.976c-0.224,10.83-1.258,22.138,0.001,32.906c1.904,16.29,14.8,22.338,28.552,28.155
				c0.834-1.98,1.669-3.961,2.504-5.94c-5.124-0.839-10.333-1.678-15.54-1.341c-3.056,0.198-6.035,0.992-9.089,1.225
				c-1.726,0.132-3.303,1.379-3.25,3.25c0.192,6.728,2.147,13.094,3.197,19.699c1.591-1.224,3.183-2.447,4.774-3.671
				c-8.042-3.453-8.5-15.031-18.305-16.612c-4.5-0.726-8.974,0.939-12.16,4.1c-3.817,3.785-4.928,9.325-9.5,12.513
				c1.63,0.936,3.26,1.871,4.89,2.807c-0.044-3.114-0.1-5.52,0.976-8.465c1.181-3.235,1.496-6.449,1.822-9.888
				c0.237-2.499-2.922-3.992-4.89-2.807c-6.728,4.054-13.701,7.022-21.685,6.801c0.547,2.019,1.094,4.037,1.64,6.057
				c1.319-0.964,2.07-1.822,3.101-3.075c1.633-1.985,4.399-3.273,6.525-4.657c4.492-2.924,7.288-7.106,10.243-11.502
				c7.081-10.529,7.613-24.928,8.296-37.219c1.709-30.718-1.838-61.49-1.91-92.208C111.014,178.085,104.514,178.084,104.524,182.276
				L104.524,182.276z"/>
		</g>
	</g>
	<g>
		<path fill="#70BF44" d="M100.821,195.143c-6.698,2.519-13.396,4.031-21.125,4.031c-9.274,0-30.399-13.606-14.427-21.164
			c-18.549,1.008-29.369-10.078-26.277-27.715c-8.244-5.542-14.942-10.582-18.549-19.652c-2.576-7.558,0.516-15.117-1.546-21.164
			c-3.091-8.063-11.335-10.582-9.789-20.66c0.515-4.031,3.092-5.543,4.122-9.07c1.03-3.023,1.03-5.543,1.545-8.566
			C16.32,65.64,19.928,53.546,26.11,51.53c3.606-1.512,6.183,1.512,9.79-1.008c3.091-2.016,6.182-11.59,8.244-15.117
			c6.183-9.574,8.244-9.574,18.033-12.597c7.729-2.016,16.488-12.598,24.732-10.582c3.607,1.007,5.152,4.535,8.759,5.542
			c4.637,1.512,10.305-1.007,15.458-1.007c9.274-0.504,10.819,5.039,18.033,8.062c7.213,3.023,16.488,1.008,23.701,3.527
			c8.244,3.527,13.912,4.535,23.186,5.543c3.091,0.504,8.244,0.504,10.82,2.016c3.606,2.52,2.576,6.046,5.152,8.566
			c6.183,5.039,17.519,4.031,23.701,10.078c3.608,3.527,3.608,6.551,4.638,11.086c0.516,1.511-1.03,3.527-0.516,5.039
			c1.032,2.016,3.091,2.016,4.122,4.031c5.151,9.574,2.577,13.102,1.032,22.676c-1.032,8.566,3.09,17.637,3.09,26.203
			c0,7.055-2.061,13.102-3.09,20.156c-1.547,10.582-5.667,22.172-13.398,30.234c-5.667,5.543-15.457,9.07-23.701,13.605
			c-14.942,8.566-26.277,15.116-44.311,10.582c-4.123-1.513-7.213-5.039-11.851-4.536c-3.606,0.504-4.121,3.527-7.213,3.527
			c-5.667,0-11.335-6.551-17.003-6.047c-2.576,0.504-6.182,4.032-8.759,4.535"/>
		<g>
			<path d="M99.957,192.009c-8.659,3.153-18.739,5.919-27.513,1.89c-3.121-1.433-6.348-3.48-8.468-6.232
				c-2.56-3.323-0.2-5.24,2.933-6.85c2.874-1.477,1.539-6.177-1.64-6.056c-6.725,0.256-13.518-0.783-18.594-5.545
				c-4.875-4.574-5.526-11.821-4.55-18.056c0.242-1.542-0.168-2.774-1.494-3.67c-5.118-3.462-10.206-7.059-13.921-12.08
				c-4.969-6.715-3.739-13.738-3.827-21.52c-0.057-5.033-2.417-9.007-5.458-12.821c-3.781-4.74-7.335-9.192-3.644-15.333
				c5.556-9.24,3.661-21.36,11.371-29.772c1.959-2.138,4.48-1.48,7.016-1.163c2.119,0.266,4.415-0.688,6.03-1.979
				c3.615-2.89,5.24-8.118,7.029-12.208c1.757-4.016,4.23-8.324,7.865-10.925c3.778-2.703,8.829-2.915,12.959-4.864
				c4.976-2.348,9.239-5.9,14.139-8.392c3.255-1.655,6.023-1.532,8.8,0.863c2.239,1.932,4.33,3.253,7.234,3.946
				c6.023,1.438,12.189-2.006,18.299-1.096c4.855,0.723,8.622,5.479,12.996,7.483c5.444,2.496,11.748,2.262,17.594,2.609
				c7.019,0.417,13.401,4.025,20.276,5.418c5.73,1.161,11.597,1.349,17.351,2.304c3.825,0.635,3.614,3.376,5.088,6.108
				c1.327,2.459,3.183,3.858,5.646,5.117c4.571,2.336,9.875,2.981,14.705,4.611c3.13,1.056,5.652,2.958,7.312,5.832
				c1.845,3.194,0.864,6.528,1.038,9.838c0.121,2.311,0.79,3.738,2.615,5.22c2.655,2.156,3.681,4.766,4.45,8.074
				c1.329,5.725-1.942,12.266-2.007,18.077c-0.08,7.096,2.606,13.998,3.198,21.032c0.631,7.497-2.005,15.182-3.161,22.53
				c-1.036,6.587-3.155,12.979-6.266,18.87c-3.636,6.883-8.791,11.118-15.548,14.706c-5.96,3.165-12.059,5.974-17.937,9.305
				c-5.947,3.369-11.99,6.44-18.641,8.142c-6.28,1.606-14.792,1.744-20.628-1.301c-4.969-2.592-9.16-5.145-14.722-2.532
				c-3.002,1.411-3.171,2.99-6.95,1.3c-2.508-1.121-4.763-2.73-7.316-3.768c-6.015-2.443-9.243-0.2-14.401,2.87
				c-0.439,0.174-0.878,0.349-1.317,0.522c-3.983,1.256-2.281,7.531,1.728,6.268c2.33-0.734,4.271-2.024,6.312-3.339
				c3.242-2.089,6.18,0.056,9.099,1.675c4.207,2.332,9.31,4.825,13.818,1.865c2.94-1.931,4.554-2.53,7.981-0.688
				c2.561,1.376,4.813,2.756,7.669,3.424c6.286,1.471,12.709,1.438,19.031,0.284c12.628-2.305,23.714-10.659,35.06-16.169
				c5.451-2.647,10.81-5.426,15.301-9.556c4.698-4.319,7.741-10.577,10.161-16.355c2.528-6.034,3.504-12.381,4.659-18.766
				c1.275-7.044,3.03-13.796,2.422-21.018c-0.598-7.104-3.113-13.845-3.032-21.032c0.064-5.736,2.847-11.013,1.944-16.85
				c-0.415-2.688-1.342-5.087-2.449-7.557c-0.35-0.781-4.481-5.208-4.366-5.675c1.187-4.811-0.725-11.035-3.633-14.95
				c-2.982-4.014-7.612-5.958-12.25-7.362c-2.575-0.779-5.21-1.351-7.791-2.113c-3.894-1.151-5.591-2.604-7.024-6.4
				c-1.738-4.603-5.655-6.256-10.224-6.836c-6.553-0.831-13.111-1.333-19.536-2.961c-6.085-1.542-11.313-4.141-17.664-4.663
				c-7.185-0.59-13.478-0.404-19.548-4.825c-3.552-2.586-6.89-5.062-11.464-5.343c-6.598-0.406-15.043,3.849-20.513-0.871
				c-9.523-8.217-18.568-0.754-27.375,4.691c-4.114,2.544-8.925,3.211-13.327,5.093c-3.906,1.67-6.57,4.394-9.115,7.728
				c-2.994,3.922-4.629,8.398-6.705,12.824c-1.006,2.146-2.089,5.218-4.896,5.264c-2.902,0.048-4.915-0.726-7.788,0.451
				c-7.867,3.224-11.868,15.653-12.999,23.329c-0.493,3.346-0.8,6.438-2.58,9.386c-1.289,2.135-2.33,4.018-2.828,6.49
				c-1.002,4.973,0.517,9.624,3.483,13.59c2.982,3.987,6.537,7.063,6.926,12.343c0.445,6.031-0.781,11.654,0.925,17.618
				c2.758,9.642,12.218,16.302,20.043,21.594c-0.498-1.223-0.996-2.447-1.494-3.67c-1.346,8.591-0.292,16.862,5.508,23.634
				c5.775,6.742,15.499,8.516,23.903,8.195c-0.547-2.019-1.094-4.038-1.64-6.056c-4.094,2.104-7.761,5.426-7.342,10.413
				c0.412,4.906,4.544,8.519,8.257,11.212c11.196,8.119,24.886,5.91,37.141,1.447C105.59,196.854,103.905,190.571,99.957,192.009
				L99.957,192.009z"/>
		</g>
	</g>
	<g>
		<path fill="#E71E25" d="M60.74,97.806c-7.437-6.638-18.456,7.983-9.546,17.196c7.637,7.37,19.092-3.685,21.001-11.055
			c1.273-5.528-4.073-13.086-10.437-8.174"/>
		<g>
			<path d="M63.038,95.508c-6.546-5.212-14.573-1.351-17.353,6.021c-2.888,7.658,1.28,18.887,10.621,19.128
				c8.656,0.223,15.966-7.471,18.792-15.07c3.417-9.189-6.678-18.198-14.98-12.619c-3.459,2.324-0.209,7.958,3.28,5.612
				c5.03-3.38,6.516,3.325,4.691,6.929c-1.978,3.907-5.676,7.417-9.945,8.558c-5.117,1.368-7.624-5.157-6.761-9.115
				c0.597-2.737,3.926-7.343,7.059-4.849C61.685,102.686,66.317,98.118,63.038,95.508L63.038,95.508z"/>
		</g>
	</g>
	<g>
		<path fill="#E71E25" d="M124.317,102.422c-5.907-11.973-24.284,20.752-1.313,21.55c16.407,0.797,20.127-29.934,0.986-23.194"/>
		<g>
			<path d="M127.123,100.782c-4.767-8.832-13.494-1.756-16.469,4.453c-4.058,8.469-2.214,18.631,7.703,21.379
				c10.438,2.893,19.699-4.343,21.481-14.57c1.896-10.885-6.299-17.792-16.711-14.399c-3.967,1.293-2.269,7.57,1.728,6.268
				c5.881-1.917,9.234,0.341,8.69,6.578c-0.541,6.193-5.529,10.52-11.571,10.173c-6.58-0.378-7.878-5.66-6.119-11.077
				c0.716-2.206,2.037-4.248,3.729-5.821c1.188-1.105,1.268-0.925,1.928,0.297C123.502,107.752,129.114,104.47,127.123,100.782
				L127.123,100.782z"/>
		</g>
	</g>
	<g>
		<path fill="#E71E25" d="M159.518,59.71c-2.886-7.612-8.554-1.485-10.427,3.652c-3.748,7.992-3.543,10.792,6.245,14.842
			c7.052,2.918,19.36-8.563,16.238-16.555c-1.874-4.567-10.824-10.536-13.323-4.256"/>
		<g>
			<path d="M162.324,58.07c-1.96-4.351-5.589-6.351-10.04-4.121c-4.337,2.173-6.424,8.214-7.946,12.433
				c-3.169,8.786,6.662,16.532,15.025,15.39c8.241-1.125,17.451-10.507,15.776-19.288c-1.491-7.816-14.854-16.405-19.695-6.729
				c-1.87,3.737,3.736,7.029,5.612,3.28c1.835-3.668,8.135,3.085,7.728,6.105c-0.622,4.613-5.21,8.718-9.444,10.052
				c-2.565,0.808-9.155-1.729-9.249-4.861c-0.062-2.067,1.387-4.265,2.133-6.104c0.443-1.092,1.04-2.055,1.686-3.032
				c1.287-1.945,1.904-1.834,2.801,0.156C158.431,65.167,164.031,61.859,162.324,58.07L162.324,58.07z"/>
		</g>
	</g>
	<g>
		<path fill="#E71E25" d="M98.088,148.176c-1.989-4.607-6.994-4.172-10.753,0.225c-9.023,8.062-2.256,19.056,8.271,19.056
			c24.174,0,9.129-30.302,0.465-21.824"/>
		<g>
			<path d="M100.895,146.536c-2.901-5.449-9.238-6.24-13.894-2.296c-4.796,4.062-7.9,8.971-6.779,15.397
				c1.973,11.303,17.641,13.473,25.961,8.482c13.63-8.176-0.445-35.585-12.41-24.784c-3.117,2.814,1.494,7.396,4.597,4.596
				c4.116-3.715,7.909,9.129,6.574,12.151c-2.127,4.813-10,4.941-14.026,3.093c-2.76-1.267-4.922-4.155-4.492-7.291
				c0.417-3.043,6.407-10.667,8.856-6.068C97.252,153.517,102.863,150.233,100.895,146.536L100.895,146.536z"/>
		</g>
	</g>
	<g>
		<path fill="#E71E25" d="M152.482,150.845c-2.075-12.471-22.941,3.809-10.32,17.573c5.68,5.899,19.684-2.242,21.577-8.797
			c1.893-7.21-4.417-16.387-11.359-11.798"/>
		<g>
			<path d="M155.616,149.981c-1.847-8.843-10.942-7.793-16.103-2.486c-6.827,7.02-5.804,19.145,2.296,24.754
				c7.767,5.379,20.311-2.833,24.178-9.614c5.458-9.571-4.731-23.58-15.248-17.618c-3.646,2.066-0.371,7.683,3.28,5.612
				c3.532-2.001,5.676,1.168,6.585,4.325c0.843,2.926-0.409,5.159-2.365,7.172c-2.747,2.828-10.043,7.393-13.78,3.993
				c-3.836-3.49-3.922-9.528-0.848-13.458c1.816-2.323,4.951-4.716,5.737-0.953C150.206,155.811,156.471,154.07,155.616,149.981
				L155.616,149.981z"/>
		</g>
	</g>
	<g>
		<path fill="#E71E25" d="M183.188,108.05c-3.673-9.754-29.849,15.118-7.08,21.389c8.814,2.09,16.485-4.709,16.485-13.071
			c0.692-7.871-5.74-12.817-10.484-6.967"/>
		<g>
			<path d="M185.995,106.41c-5.356-12.286-29.797,8.235-19.544,21.228c3.154,3.998,9.496,5.674,14.314,5.354
				c5.917-0.394,11.008-4.382,13.524-9.61c2.352-4.889,2.557-12.479-1.303-16.705c-3.914-4.285-9.401-3.683-13.174,0.426
				c-2.83,3.081,1.755,7.689,4.596,4.596c3.606-3.926,5.063,1.472,4.937,4.669c-0.149,3.766-1.901,6.84-5.079,8.869
				c-4.084,2.608-12.616,1.294-14.039-4.021c-0.889-3.324,2.281-7.085,4.433-9.18c1.338-1.303,4.921-4.185,5.723-2.345
				C182.054,113.525,187.652,110.212,185.995,106.41L185.995,106.41z"/>
		</g>
	</g>
	<g>
		<path fill="#E71E25" d="M86.604,51.25c-7.632-6.047-10.232,7.418-9.481,11.644c2.119,11.931,11.584,12.435,21.095,5.488
			c4.433-3.237,7.177-11.187,3.791-15.477c-6.773-7.967-14.909-3.733-14.727,2.636"/>
		<g>
			<path d="M88.244,48.444c-8.534-6.036-13.459,3.468-14.389,10.866c-1.295,10.299,6.68,18.293,16.761,16.366
				c10.147-1.94,20.849-14.202,14.199-24.411c-5.858-8.993-20.285-7.232-20.783,4.276c-0.182,4.192,6.319,4.175,6.5,0
				c0.307-7.084,9.802-2.541,9.711,2.98c-0.1,6.126-7.309,10.532-12.732,11.105c-5.271,0.557-7.409-5.105-7.227-9.481
				c0.122-2.916,1.028-8.67,4.68-6.088C88.395,56.483,91.637,50.843,88.244,48.444L88.244,48.444z"/>
		</g>
	</g>
</g>
<g id="saule de fond">
	<g>
		<path fill="#BE6128" d="M358.825,213.89c4.664,22.506-0.778,39.386-11.662,57.873c-6.221,12.057-9.33,24.113-11.663,37.777
			c-2.332,14.469,0.503,11.516-4.939,24.376c-0.777,0.804-6.204,3.758-8.277,6.704c19.696,8.039,12.958-14.599,26.176,6.169
			c3.109-4.019,4.146-5.901,4.924-11.527c8.552,0,15.809,7.234,24.361,3.216c-9.59-6.432-21.252-3.216-21.252-23.311
			c0-16.88,6.586-31.723,13.583-44.583c10.107-19.291,9.741-36.6,9.741-58.302"/>
		<g>
			<path d="M356.414,214.555c2.537,12.895,1.778,25.44-2.589,37.845c-4.224,11.995-11.623,22.403-15.614,34.557
				c-3.499,10.656-5.723,22.063-6.363,33.264c-0.18,3.141-0.927,5.936-2.019,8.886c-1.743,4.709-6.237,5.95-9.313,9.747
				c-1.245,1.536-0.748,3.464,1.103,4.179c5.172,1.996,10.919,2.995,15.686-0.468c0.654-0.476,3.008-2.302,2.66-2.353
				c2.503,0.366,5.173,6.035,6.337,7.84c1.1,1.706,3.18,1.496,4.316,0c2.908-3.823,4.444-7.363,5.177-12.124
				c-0.804,0.611-1.607,1.224-2.411,1.835c8.825,0.421,16.043,6.705,25.026,3.127c1.983-0.791,2.548-3.323,0.597-4.57
				c-5.602-3.58-14.061-4.206-17.819-10.129c-3.206-5.052-2.341-12.515-1.81-18.132c0.675-7.122,2.855-14.093,5.427-20.731
				c4.83-12.467,12.11-23.264,15.045-36.501c2.793-12.601,2.472-25.719,2.468-38.543c-0.001-3.225-5.001-3.225-5,0
				c0.005,14.064,0.189,28.179-3.421,41.884c-3.677,13.953-12.408,25.933-16.671,39.752c-3.227,10.458-6.144,25.674,0.139,35.573
				c4.182,6.589,12.994,7.23,19.119,11.146c0.199-1.523,0.398-3.047,0.597-4.57c-7.989,3.184-15.637-2.921-23.696-3.305
				c-1.009-0.048-2.25,0.79-2.411,1.835c-0.666,4.336-2.023,7.448-4.671,10.931c1.438,0,2.878,0,4.316,0
				c-2.329-3.612-6.86-12.407-12.549-9.776c-1.566,0.725-2.709,2.139-4.137,3.082c-3.328,2.202-7.627,0.672-10.983-0.624
				c0.367,1.394,0.735,2.786,1.103,4.179c2.299-2.837,7.531-4.481,8.921-7.807c1.561-3.738,3.195-7.521,3.65-11.582
				c1.326-11.835,2.839-23.269,6.41-34.714c4.104-13.152,12.279-24.37,16.6-37.444c4.037-12.217,4.069-25.088,1.604-37.616
				C360.613,210.063,355.795,211.405,356.414,214.555L356.414,214.555z"/>
		</g>
	</g>
	<g>
		<path fill="#8CC96C" d="M353.864,93.97c-25.332-4.019,10.133-77.164,38.506-76.36c36.478,0.804,29.385,61.892,29.385,75.556"/>
		<g>
			<path d="M354.529,91.559c-13.456-2.483-4.292-25.425-1.123-32.637c6.252-14.224,16.494-30.185,30.996-37.064
				c6.53-3.098,14.373-1.863,20.316,1.956c6.319,4.06,9.624,11.625,11.661,18.545c4.217,14.326,3.684,29.809,3.071,44.572
				c-0.086,2.077-0.187,4.155-0.196,6.235c-0.015,3.225,4.985,3.224,5,0c0.061-13.146,1.105-26.107-0.523-39.231
				c-1.719-13.85-6.319-30.179-20.176-36.441c-14.192-6.414-27.216,1.504-36.858,11.81c-10.924,11.677-19.486,27.15-22.946,42.799
				c-1.98,8.956-1.918,22.181,9.448,24.278C356.351,96.962,357.697,92.144,354.529,91.559L354.529,91.559z"/>
		</g>
	</g>
	<g>
		<path fill="#8CC96C" d="M394.996,128.644c0,0.711,0.842,2.844-0.843,1.422c-11.788-21.326-4.21-83.88,37.05-78.904
			c26.945,3.554,29.472,57.578,29.472,76.06"/>
		<g>
			<path d="M392.496,128.644c0.077,0.578,0.189,1.155,0.182,1.74c0.413-0.719,0.825-1.439,1.238-2.159
				c-0.097,0.049-0.193,0.099-0.29,0.148c0.841,0,1.683,0,2.523,0c-1.507-0.957-2.234-5.419-2.669-7.031
				c-0.906-3.368-1.376-6.836-1.652-10.307c-0.624-7.824,0.044-15.75,1.703-23.408c3.187-14.707,11.407-30.189,27.231-33.689
				c18.367-4.062,27.442,11.339,31.886,26.605c4.374,15.025,5.503,31.09,5.526,46.678c0.005,3.224,5.005,3.225,5,0
				c-0.024-16.079-1.37-32.476-5.705-48.007c-4.15-14.875-12.455-29.935-29.481-30.809c-34.9-1.792-44.81,43.631-40.202,70.27
				c0.589,3.403,2.964,16.769,8.653,13.866c0.779-0.397,1.228-1.314,1.238-2.159c0.008-0.603-0.103-1.147-0.182-1.74
				C397.078,125.496,392.072,125.455,392.496,128.644L392.496,128.644z"/>
		</g>
	</g>
	<g>
		<path fill="#8CC96C" d="M289.173,75.664c0.777-22.506,19.437-68.321,45.871-65.106c26.435,3.215,35.764,37.778,34.986,61.088"/>
		<g>
			<path d="M291.673,75.664c0.54-12.302,4.711-24.632,10.101-35.604c5.389-10.972,13.707-23.411,26.248-26.658
				c13.34-3.454,25.086,7.577,30.966,18.231c6.595,11.95,8.901,26.507,8.543,40.012c-0.086,3.226,4.914,3.218,5,0
				c0.396-14.939-2.534-30.411-9.796-43.569c-6.586-11.934-19.782-22.305-34.167-19.856c-13.694,2.332-23.094,14.682-29.425,26.086
				c-6.902,12.432-11.843,27.079-12.47,41.357C286.531,78.889,291.532,78.875,291.673,75.664L291.673,75.664z"/>
		</g>
	</g>
	<g>
		<path fill="#8CC96C" d="M263.194,110.26c-6.997-20.095,16.327-80.378,43.539-73.144c28.767,8.841,31.1,64.303,26.435,88.416"/>
		<g>
			<path d="M265.605,109.595c-4.389-13.432,2.064-30.781,7.706-42.877c5.268-11.294,16.148-29.724,31.13-27.546
				c16.265,2.366,22.873,23.64,25.636,37.089c3.217,15.666,3.638,32.856,0.68,48.606c-0.591,3.151,4.228,4.496,4.822,1.329
				c3.219-17.142,2.584-35.37-0.916-52.409c-3.24-15.776-10.702-33.655-27.265-39.082c-15.185-4.976-28.223,11.405-34.789,22.585
				c-8.111,13.81-14.602,31.95-12.947,48.196c0.188,1.851,0.544,3.671,1.121,5.438C261.78,113.975,266.609,112.669,265.605,109.595
				L265.605,109.595z"/>
		</g>
	</g>
	<g>
		<path fill="#8CC96C" d="M249.2,172.131c-16.327-32.125,6.997-95.456,40.429-97.291c40.429-1.836,34.209,67.92,34.209,97.291"/>
		<g>
			<path d="M251.359,170.869c-8.625-17.514-5.234-39.383,1.37-56.958c5.915-15.74,18.312-35.231,36.899-36.571
				c17.523-1.263,25.43,14.912,28.771,29.52c3.922,17.154,3.459,35.218,3.124,52.7c-0.08,4.19-0.179,8.38-0.186,12.571
				c-0.006,3.225,4.994,3.224,5,0c0.027-16.419,0.867-32.804-0.544-49.197c-1.285-14.926-4.045-32.538-15.434-43.378
				c-11.326-10.781-28.544-8.38-40.132,0.49c-14.652,11.217-22.934,30.009-26.764,47.595c-3.273,15.024-3.337,31.714,3.576,45.752
				C248.466,176.285,252.778,173.75,251.359,170.869L251.359,170.869z"/>
		</g>
	</g>
	<g>
		<path fill="#8CC96C" d="M262.676,218.035c-7.774-11.676,2.852-55.463,7.517-68.807c6.22-17.514,18.659-24.617,38.874-22.949
			c19.437,1.668,24.879,31.693,27.212,47.539c1.555,7.506,2.332,45.037,0.777,44.203"/>
		<g>
			<path d="M264.834,216.773c-4.066-6.58-2.505-16.671-1.741-23.918c1.079-10.238,3.271-20.395,5.814-30.359
				c2.164-8.48,4.438-17.384,10.151-24.244c7.052-8.465,18.142-10.121,28.543-9.579c20.087,1.047,23.998,30.54,26.266,45.81
				c1.071,7.212,1.213,14.578,1.406,21.858c0.173,6.556,0.953,13.903-0.272,20.396c-0.32,1.051,0.364,0.646,2.055-1.216
				c-3.202-0.355-3.168,4.648,0,5c6.215,0.689,2.884-33.835,2.646-37.693c-0.976-15.885-3.923-33.842-12.684-47.371
				c-4.938-7.625-11.9-11.393-20.855-11.859c-9.284-0.484-19.322,1.301-26.683,7.329c-13.551,11.098-16.534,32.725-19.487,48.94
				c-1.399,7.684-2.437,15.49-2.575,23.306c-0.095,5.343,0.211,11.45,3.1,16.123C262.208,222.033,266.535,219.524,264.834,216.773
				L264.834,216.773z"/>
		</g>
	</g>
	<g>
		<path fill="#8CC96C" d="M309.104,159.2c-13.218-38.582-8.553-90.828,34.986-108.511c43.539-17.683,54.424,78.771,37.319,104.492"
			/>
		<g>
			<path d="M311.515,158.536c-12.615-37.442-8.102-91.758,35.669-106.316c13.787-4.585,23.818,5.541,29.585,16.97
				c7.266,14.399,9.604,31.522,9.843,47.47c0.182,12.152-0.546,26.727-7.361,37.26c-1.757,2.716,2.573,5.22,4.318,2.523
				c7.149-11.051,8.06-26.044,8.051-38.809c-0.011-15.821-2.459-32.356-8.706-46.969c-4.744-11.098-12.936-23.038-25.972-24.459
				c-16.883-1.841-33.896,12.531-43.01,25.301c-17.857,25.023-16.651,60.423-7.239,88.358
				C307.717,162.903,312.547,161.6,311.515,158.536L311.515,158.536z"/>
		</g>
	</g>
	<g>
		<path fill="#8CC96C" d="M345.118,176.521c-25.361-19.291,11.271-97.258,48.844-89.221c34.754,8.038,34.754,73.948,24.421,96.454"
			/>
		<g>
			<path d="M346.886,174.754c-12.152-9.64-7.661-29.2-3.247-41.61c5.712-16.057,16.613-32.636,32.069-40.675
				c15.927-8.284,30.996,0.98,38.389,15.681c8.02,15.951,8.866,35.739,7.115,53.181c-0.715,7.124-2.046,14.587-4.987,21.163
				c-1.306,2.917,3.002,5.462,4.316,2.523c6.307-14.096,7.054-30.965,6.011-46.142c-1.112-16.198-5.218-34.355-17.313-46.036
				c-11.367-10.977-27.315-10.47-40.075-2.367c-14.278,9.068-24.061,24.865-29.979,40.348c-5.404,14.137-9.636,36.521,4.166,47.469
				C345.848,180.271,349.411,176.757,346.886,174.754L346.886,174.754z"/>
		</g>
	</g>
	<g>
		<path fill="#8CC96C" d="M410.32,196.5c-6.221-11.253-3.11-35.367,1.555-47.423c5.442-14.468,32.654-42.601,49.759-35.367
			c15.549,6.431,18.659,36.974,19.437,51.442c0.777,16.076,2.518,15.963,0.962,32.039"/>
		<g>
			<path d="M412.479,195.238c-4.07-7.891-3.477-17.818-2.589-26.38c0.82-7.91,2.551-16.3,6.446-23.306
				c7.238-13.018,21.463-27.389,36.55-30.301c17.195-3.318,22.203,21.877,24.1,33.815c1.267,7.973,1.433,16.021,2.133,24.048
				c0.714,8.181,1.174,15.851,0.414,24.077c-0.297,3.211,4.706,3.183,5,0c0.897-9.72-0.078-18.803-0.759-28.475
				c-0.639-9.069-1.25-18.038-3.041-26.976c-3.001-14.971-10.735-34.032-29.176-31.311c-8.43,1.244-16.099,6.917-22.399,12.288
				c-6.934,5.912-13.172,13.175-17.607,21.154c-4.184,7.523-5.661,16.554-6.66,24.986c-1.121,9.462-1.202,20.231,3.272,28.903
				C409.641,200.628,413.955,198.099,412.479,195.238L412.479,195.238z"/>
		</g>
	</g>
	<g>
		<path fill="#8CC96C" d="M302.57,229.025c-26.655-25.031,1.975-103.251,34.553-108.466c31.591-5.215,41.463,34.417,44.425,59.448
			c0.987,11.472,4.936,39.632-0.988,49.019"/>
		<g>
			<path d="M304.338,227.258c-12.457-12.087-10.881-32.703-7.429-48.172c3.932-17.614,12.28-35.924,25.794-48.241
				c6.069-5.531,13.167-8.472,21.416-8.216c9.494,0.295,16.887,6.721,21.853,14.295c10.138,15.465,12.3,35.125,14.058,53.074
				c0.668,6.819,1.184,13.655,1.223,20.51c0.032,5.609,0.053,12.26-2.852,17.256c-1.623,2.793,2.698,5.309,4.318,2.523
				c4.407-7.581,3.727-17.893,3.371-26.306c-0.389-9.197-1.251-18.507-2.51-27.628c-2.396-17.36-6.806-36.903-19.547-49.794
				c-11.521-11.656-29.539-11.342-42.045-1.588c-13.752,10.725-22.242,27.64-27.483,43.919c-6.132,19.048-9.632,46.447,6.298,61.902
				C303.116,233.038,306.655,229.506,304.338,227.258L304.338,227.258z"/>
		</g>
	</g>
	<g>
		<path fill="#8CC96C" d="M359.292,228.634c-5.442-2.438-6.22-23.559-5.442-30.87c3.109-25.184,19.437-53.616,45.871-56.865
			c35.764-5.687,35.685,38.23,32.396,68.925c-0.465,4.348-2.165,17.85-3.72,18.661"/>
		<g>
			<path d="M360.554,226.475c-2.61-1.474-3.039-6.599-3.496-9.215c-0.763-4.366-0.93-8.865-0.963-13.289
				c-0.068-9.008,2.26-17.847,5.55-26.181c7.586-19.218,24.307-35.923,46.201-34.822c17.778,0.894,21.928,21.399,22.888,35.617
				c0.576,8.553,0.149,17.168-0.577,25.698c-0.326,3.832-0.748,7.656-1.276,11.467c-0.327,2.362-0.363,9.274-2.251,10.968
				c-2.405,2.156,1.143,5.681,3.535,3.535c2.109-1.891,2.353-5.965,2.814-8.536c0.771-4.295,1.295-8.644,1.752-12.981
				c1.015-9.624,1.531-19.318,1.069-28.991c-0.731-15.322-4.483-34.149-20.515-40.309c-8.305-3.191-19.072-1.411-27.014,1.946
				c-9.829,4.154-17.501,11.447-23.556,20.111c-11.625,16.638-15.545,37.258-12.479,57.098c0.644,4.17,1.766,9.929,5.794,12.204
				C360.842,232.38,363.36,228.061,360.554,226.475L360.554,226.475z"/>
		</g>
	</g>
</g>
<g id="buisson de fond">
	<g>
		<path fill="#129447" d="M256.531,353.066c-6.061-7.322-6.061-0.915-9.523-0.915c-6.059,0-19.043,9.152-25.104,4.576
			c-5.193,3.661-6.924,0.915-12.117,0.915c-0.867,0-2.598-1.83-3.463-1.83s-6.061,1.83-6.061,1.83c-1.73,0-6.059,1.831-8.656,0.915
			c-4.328-0.915-6.059-8.237-9.521-9.152c-8.656-2.745-10.387,2.746-17.313,2.746c-7.791,0-9.994-5.855-20.48-5.928
			c-5.516-11.956-4.115-19.865-14.502-21.695c2.597-11.898,2.955-15.394,2.955-27.291c0-13.729-3.463-10.068-4.328-21.051
			c12.118-2.746,9.522-29.288,18.178-33.864c4.328-1.83,11.252-0.915,15.58-2.745c6.926-4.576,9.523-10.983,15.582-16.475
			c0.865,8.237,8.656,12.813,15.582,7.322c2.596,5.491,3.463,2.745,7.791,3.66c1.73,0,4.328-4.576,6.924-4.576
			c0,0,4.328,3.661,6.926,3.661c9.521-0.915,21.611,3.547,30.297-2.745c10.107-7.322,34.627,4.576,51.072,7.321
			c1.732,0,4.328-4.576,6.926-4.576c1.732,0,4.328,3.661,5.193,3.661h11.254c6.059,2.746,6.518,16.895,9.438,21.051
			c2.895,4.122,6.924,7.321,5.193,24.711c-0.865,9.152,8.742,26.542,3.547,32.033c-4.328,3.661-9.521,2.746-12.984,6.407
			c-2.596,3.661-3.463,11.898-7.791,16.475c-0.865,0.915-12.117,10.982-12.984,11.897c-5.193,0.915-11.252-4.576-15.58-2.745
			c-3.463,0.915-6.061,7.321-10.389,10.067c-4.328,1.83-10.387,0-13.85,1.83c0-1.83-1.732-3.661-1.732-5.491
			C260.859,353.981,259.129,353.981,256.531,353.066"/>
		<g>
			<path d="M258.299,351.299c-1.686-1.914-4.416-5.034-7.405-4.129c-2.125,0.645-3.127,2.277-5.343,2.617
				c-6.308,0.965-16.302,8.636-22.385,4.781c-0.73-0.462-1.792-0.457-2.523,0c-3.397,2.129-8.877,1.628-12.272-0.629
				c-2.186-1.452-5.237,0.098-7.392,0.818c-2.552,0.853-6.091,1.948-8.706,1.389c-3.405-0.728-4.7-6.129-7.433-8.069
				c-6.287-4.463-12.176-0.085-18.353,1.433c-3.962,0.974-7.697-1.475-11.056-3.146c-3.53-1.758-7.219-2.497-11.138-2.64
				c0.72,0.413,1.439,0.825,2.159,1.238c-4.018-9.04-4.628-20.455-15.997-22.845c0.582,1.025,1.164,2.051,1.746,3.076
				c2.153-9.959,3.144-19.527,3.023-29.724c-0.083-6.991-3.665-12.499-4.307-19.283c-0.612,0.804-1.224,1.607-1.835,2.411
				c11.189-3.113,11.852-18.779,14.826-27.894c0.808-2.475,1.942-5.477,4.593-6.406c4.097-1.437,8.858-0.854,13.099-1.875
				c7.659-1.842,12.58-12.473,17.926-17.553c-1.393-0.367-2.786-0.735-4.178-1.103c1.498,9.68,10.962,14.695,19.254,8.816
				c-1.14-0.3-2.28-0.599-3.42-0.897c1.63,3.174,3.377,5.007,7.076,4.726c1.549-0.118,3.403,0.604,4.824-0.365
				c1.83-1.25,3.399-3.674,5.639-4.127c-0.811-0.215-1.622-0.429-2.432-0.644c2.244,1.854,5.572,4.611,8.693,4.394
				c6.42-0.447,12.795,0.798,19.219,0.655c5.425-0.12,9.302-2.209,13.919-4.68c4.602-2.462,11.507-0.752,16.237,0.259
				c5.671,1.213,11.225,2.98,16.784,4.614c2.725,0.802,5.458,1.568,8.209,2.277c2.062,0.53,5.543,1.967,7.666,1.361
				c1.767-0.505,2.941-1.677,4.241-2.932c2.621-2.529,3.343,0.637,5.481,1.562c2.626,1.135,6.033,0.544,8.832,0.544
				c4.437,0,4.849,0.289,6.621,4.937c1.62,4.246,2.129,8.843,3.876,13.044c0.947,2.28,2.719,4.08,3.952,6.206
				c2.369,4.083,2.323,9.224,2.208,13.783c-0.132,5.211-0.41,9.534,0.779,14.654c1.247,5.371,3.27,10.615,3.872,16.121
				c0.739,6.756-6.178,6.835-10.959,9.077c-4.584,2.15-5.598,8.165-7.139,12.438c-1.891,5.242-5.546,8.139-9.52,11.74
				c-1.87,1.695-3.743,3.388-5.603,5.095c-1.598,1.467-3.439,0.177-6.342-0.908c-5.269-1.971-9.648-2.565-13.794,1.781
				c-3.037,3.184-4.682,7.322-9.597,7.785c-3.496,0.33-6.926-0.278-10.269,1.063c1.025,0.582,2.051,1.164,3.076,1.746
				c-0.379-1.921-1.352-3.557-1.732-5.491c-0.24-1.215-1.881-2.248-3.076-1.746c-1.669,0.702-3.034,0.51-4.729,0
				c-3.097-0.93-4.409,3.896-1.33,4.822c2.592,0.778,4.848,1.067,7.389,0c-1.025-0.582-2.051-1.164-3.076-1.746
				c0.379,1.921,1.352,3.557,1.732,5.491c0.243,1.23,1.874,2.228,3.076,1.746c4.983-2.001,10.885,0.493,15.494-2.84
				c4.591-3.32,6.335-10.739,13.028-8.702c2.951,0.897,9.517,4.619,12.398,1.746c2.45-2.442,5.11-4.695,7.673-7.018
				c2.207-2.001,4.863-3.944,6.579-6.419c1.479-2.134,2.502-4.408,3.441-6.816c1.261-3.228,1.699-7.444,4.841-9.449
				c4.131-2.635,9.727-2.03,12.466-6.834c1.941-3.404,0.897-8.111,0.149-11.688c-1.036-4.952-2.713-9.749-3.758-14.702
				c-1.228-5.816,0.273-11.855-0.246-17.768c-0.292-3.331-1.148-6.53-2.718-9.485c-1.405-2.647-3.409-4.56-4.343-7.482
				c-1.508-4.725-3.112-19.181-10.383-19.181c-3.188,0-6.377,0-9.565,0c-2.011,0-0.736,0.165-2.503-1.488
				c-1.296-1.213-3.058-2.463-4.932-2.084c-1.616,0.327-2.694,1.092-3.979,2.091c-2.729,2.124-3.154,2.257-6.641,1.447
				c-5.591-1.298-11.073-3.072-16.583-4.671c-8.718-2.529-19.349-6.007-28.354-2.922c-2.302,0.789-4.118,2.453-6.354,3.396
				c-2.972,1.251-6.334,1.28-9.501,1.24c-3.022-0.038-6.048-0.398-9.061-0.627c-2.759-0.209-6.351,0.531-8.846-0.65
				c-3.454-1.637-4.445-4.146-8.433-1.997c-1.677,0.903-2.854,3.435-4.827,3.352c-2.685-0.112-3.152,0.437-4.534-2.254
				c-0.583-1.136-2.351-1.655-3.42-0.897c-5.852,4.148-10.89,0.761-11.91-5.828c-0.302-1.955-2.947-2.272-4.178-1.103
				c-2.95,2.803-5.396,5.975-7.922,9.15c-3.607,4.537-6.976,7.362-12.916,7.901c-5.912,0.537-10.894,0.877-14.097,6.342
				c-2.724,4.647-3.587,10.435-4.93,15.575c-1.261,4.824-2.867,11.94-8.373,13.472c-0.996,0.277-1.939,1.316-1.835,2.411
				c0.592,6.249,3.815,11.497,4.247,17.714c0.704,10.133-0.65,20.094-2.784,29.963c-0.274,1.267,0.359,2.784,1.746,3.076
				c9.111,1.914,9.768,13.254,13.008,20.546c0.355,0.8,1.347,1.209,2.159,1.238c7.896,0.287,13.768,6.258,21.721,5.867
				c3.368-0.166,6.173-2.077,9.281-3.112c5.91-1.969,8.128,2.769,11.161,6.556c4.101,5.119,11.432,3.022,16.715,1.256
				c1.529-0.511,2.599-1.084,3.622-0.403c1.794,1.191,2.949,1.121,5.085,1.423c4.521,0.64,7.187,1.146,11.288-1.423
				c-0.841,0-1.682,0-2.523,0c5.906,3.742,13.398,0.139,19.176-2.121c2.766-1.082,5.833-1.284,8.503-2.283
				c1.034-0.386,1.806-0.863,2.666-1.549c1.729-1.376,2.417,0.358,3.776,1.9C256.898,357.258,260.422,353.708,258.299,351.299
				L258.299,351.299z"/>
		</g>
	</g>
	
		<ellipse fill="#3D0A38" stroke="#000000" stroke-width="5" stroke-miterlimit="10" cx="184.592" cy="273.941" rx="6.484" ry="6.825"/>
	
		<ellipse fill="#3D0A38" stroke="#000000" stroke-width="5" stroke-miterlimit="10" cx="211.028" cy="321.606" rx="6.483" ry="6.825"/>
	
		<ellipse fill="#3D0A38" stroke="#000000" stroke-width="5" stroke-miterlimit="10" cx="231.119" cy="267.117" rx="6.484" ry="6.826"/>
	
		<ellipse fill="#3D0A38" stroke="#000000" stroke-width="5" stroke-miterlimit="10" cx="290.089" cy="321.607" rx="6.483" ry="6.824"/>
	
		<ellipse fill="#3D0A38" stroke="#000000" stroke-width="5" stroke-miterlimit="10" cx="248.028" cy="301.133" rx="6.483" ry="6.825"/>
	
		<ellipse fill="#3D0A38" stroke="#000000" stroke-width="5" stroke-miterlimit="10" cx="287.96" cy="273.941" rx="6.483" ry="6.825"/>
	
		<ellipse fill="#3D0A38" stroke="#000000" stroke-width="5" stroke-miterlimit="10" cx="166.398" cy="307.958" rx="6.484" ry="6.825"/>
</g>-->
<g id="sapin de devant"
onmouseover="
document.getElementById('saule de devant').setAttribute('visibility', 'hidden');
document.getElementById('buisson de devant').setAttribute('visibility', 'hidden');
document.getElementById('pommier de devant').setAttribute('visibility', 'hidden');
"
onmouseout=
"
document.getElementById('saule de devant').setAttribute('visibility', 'visible');
document.getElementById('buisson de devant').setAttribute('visibility', 'visible');
document.getElementById('pommier de devant').setAttribute('visibility', 'visible');
"
onclick="
alert('Je suis un sapin')
">
	<path fill="#21552A" stroke="#000000" stroke-width="6" stroke-miterlimit="10" d="M226.076,33.54c0,0-49.914,64.885-57.328,76.356
		c-6.621,10.243,26.483-0.931,26.483-0.931s-27.011,61.395-42.613,72.197c-32.276,22.347,30.198,9.745,30.198,9.745
		s-37.398,66.797-51.311,76.355c-15.724,10.805,95.913,1.217,95.913,1.217s103.205,11.82,94.745-0.285
		c-10.358-14.82-43.818-74.813-43.818-74.813s43.818,6.838,27.783-6.199c-13.766-11.189-46.345-76.355-46.345-76.355
		s42.206,9.312,28.965-2.793C277.825,98.047,226.076,33.54,226.076,33.54z"/>
	<path fill="#3C160B" stroke="#000000" stroke-width="6" stroke-miterlimit="10" d="M226.323,268.57l-14.09,1.432
		c0,7.977,1.131,16.248,0.517,24.209c-0.249,3.215,0.608,8.707-0.649,11.5c-1.504,3.336-5.348,2.758-7.258,5.662
		c2.991,0.15,6.222,0.385,9.207,0.053c2.559-0.283,2.662-2.139,4.826-2.162c4.304-0.043,6.233,4.316,8.624,4.072
		c2.392-0.24,2.313-1.521,3.792-2.545c2.414-1.672,2.29-1.986,5.354-0.883c4.599,1.652,5.435,2.264,10.526,1.977
		c-1.766-2.564-2.669-1.83-4.591-4.447c-1.849-2.52-2.148-7.941-2.727-10.932c-1.732-8.961-1.29-16.205-1.29-25.439l0.036-1.404
		L226.323,268.57z"/>
</g>
<a xlink:href="bdm/Pommier.php">
<g id="pommier de devant"
onmouseover="
document.getElementById('saule de devant').setAttribute('visibility', 'hidden');
document.getElementById('buisson de devant').setAttribute('visibility', 'hidden');
document.getElementById('sapin de devant').setAttribute('visibility', 'hidden');
"
onmouseout=
"
document.getElementById('saule de devant').setAttribute('visibility', 'visible');
document.getElementById('buisson de devant').setAttribute('visibility', 'visible');
document.getElementById('sapin de devant').setAttribute('visibility', 'visible');
">
	<g>
		<path fill="#7E5422" d="M107.774,182.276c0,27.046,2.64,53.608,2.2,80.652c0,12.076-0.917,26.545-3.997,38.618
			c-1.761,5.796-5.246,10.163-8.766,14.994c-2.641,3.863-11.002,6.761-12.763,10.626l-1.32,0.964
			c8.362,0.484,16.283-2.898,23.325-7.244c-0.88,9.659-1.008,5.749-2.876,12.778l0.079,5.574c8.285-5.276,6.882-15.254,16.999-16.28
			c10.727-1.087,11.764,13.383,19.686,16.28c-0.88-6.276-3.081-12.072-3.081-18.835c7.481-0.483,7.854-2.698,23.765,0
			c-24.139-10.162-28.065-14.288-27.352-39.598c0.218-7.738,1.827-87.905,1.827-95.633"/>
		<g>
			<path d="M104.524,182.276c0.067,28.521,2.638,56.956,2.151,85.489c-0.208,12.141-0.235,27.034-6.027,37.988
				c-2.592,4.902-6,9.538-10.654,12.568c-2.038,1.326-4.039,2.636-5.923,4.176c-1.554,1.271-1.493,2.031-2.582,2.826
				c-2.536,1.852-1.789,5.962,1.64,6.057c9.085,0.252,17.294-3.066,24.965-7.688c-1.63-0.936-3.26-1.871-4.89-2.807
				c-0.336,3.545-0.998,6.322-2.1,9.628c-0.975,2.924-0.74,5.682-0.697,8.725c0.033,2.302,2.797,4.266,4.89,2.807
				c3.47-2.42,5.821-5.431,7.922-9.067c2.393-4.142,5.171-7.991,10.625-6.479c3.281,0.91,5.381,5.488,7.083,8.083
				c2.001,3.051,4.344,5.989,7.774,7.463c2.724,1.17,5.245-0.704,4.774-3.671c-0.957-6.022-2.79-11.839-2.964-17.971
				c-1.083,1.083-2.167,2.167-3.25,3.25c2.821-0.215,5.563-0.831,8.364-1.158c4.826-0.563,9.791,0.265,14.537,1.042
				c3.327,0.545,6.157-4.395,2.504-5.94c-6.879-2.91-14.55-5.754-20.067-10.973c-4.608-4.359-5.402-10.822-5.679-16.836
				c-0.476-10.37,0.276-20.936,0.489-31.308c0.502-24.426,1.303-48.876,1.342-73.308c0.007-4.192-6.493-4.191-6.5,0
				c-0.041,25.654-0.887,51.328-1.417,76.976c-0.224,10.83-1.258,22.138,0.001,32.906c1.904,16.29,14.8,22.338,28.552,28.155
				c0.834-1.98,1.669-3.961,2.504-5.94c-5.124-0.839-10.333-1.678-15.54-1.341c-3.056,0.198-6.035,0.992-9.089,1.225
				c-1.726,0.132-3.303,1.379-3.25,3.25c0.192,6.728,2.147,13.094,3.197,19.699c1.591-1.224,3.183-2.447,4.774-3.671
				c-8.042-3.453-8.5-15.031-18.305-16.612c-4.5-0.726-8.974,0.939-12.16,4.1c-3.817,3.785-4.928,9.325-9.5,12.513
				c1.63,0.936,3.26,1.871,4.89,2.807c-0.044-3.114-0.1-5.52,0.976-8.465c1.181-3.235,1.496-6.449,1.822-9.888
				c0.237-2.499-2.922-3.992-4.89-2.807c-6.728,4.054-13.701,7.022-21.685,6.801c0.547,2.019,1.094,4.037,1.64,6.057
				c1.319-0.964,2.07-1.822,3.101-3.075c1.633-1.985,4.399-3.273,6.525-4.657c4.492-2.924,7.288-7.106,10.243-11.502
				c7.081-10.529,7.613-24.928,8.296-37.219c1.709-30.718-1.838-61.49-1.91-92.208C111.014,178.085,104.514,178.084,104.524,182.276
				L104.524,182.276z"/>
		</g>
	</g>
	<g>
		<path fill="#70BF44" d="M100.821,195.143c-6.698,2.519-13.396,4.031-21.125,4.031c-9.274,0-30.399-13.606-14.427-21.164
			c-18.549,1.008-29.369-10.078-26.277-27.715c-8.244-5.542-14.942-10.582-18.549-19.652c-2.576-7.558,0.516-15.117-1.546-21.164
			c-3.091-8.063-11.335-10.582-9.789-20.66c0.515-4.031,3.092-5.543,4.122-9.07c1.03-3.023,1.03-5.543,1.545-8.566
			C16.32,65.64,19.928,53.546,26.11,51.53c3.606-1.512,6.183,1.512,9.79-1.008c3.091-2.016,6.182-11.59,8.244-15.117
			c6.183-9.574,8.244-9.574,18.033-12.597c7.729-2.016,16.488-12.598,24.732-10.582c3.607,1.007,5.152,4.535,8.759,5.542
			c4.637,1.512,10.305-1.007,15.458-1.007c9.274-0.504,10.819,5.039,18.033,8.062c7.213,3.023,16.488,1.008,23.701,3.527
			c8.244,3.527,13.912,4.535,23.186,5.543c3.091,0.504,8.244,0.504,10.82,2.016c3.606,2.52,2.576,6.046,5.152,8.566
			c6.183,5.039,17.519,4.031,23.701,10.078c3.608,3.527,3.608,6.551,4.638,11.086c0.516,1.511-1.03,3.527-0.516,5.039
			c1.032,2.016,3.091,2.016,4.122,4.031c5.151,9.574,2.577,13.102,1.032,22.676c-1.032,8.566,3.09,17.637,3.09,26.203
			c0,7.055-2.061,13.102-3.09,20.156c-1.547,10.582-5.667,22.172-13.398,30.234c-5.667,5.543-15.457,9.07-23.701,13.605
			c-14.942,8.566-26.277,15.116-44.311,10.582c-4.123-1.513-7.213-5.039-11.851-4.536c-3.606,0.504-4.121,3.527-7.213,3.527
			c-5.667,0-11.335-6.551-17.003-6.047c-2.576,0.504-6.182,4.032-8.759,4.535"/>
		<g>
			<path d="M99.957,192.009c-8.659,3.153-18.739,5.919-27.513,1.89c-3.121-1.433-6.348-3.48-8.468-6.232
				c-2.56-3.323-0.2-5.24,2.933-6.85c2.874-1.477,1.539-6.177-1.64-6.056c-6.725,0.256-13.518-0.783-18.594-5.545
				c-4.875-4.574-5.526-11.821-4.55-18.056c0.242-1.542-0.168-2.774-1.494-3.67c-5.118-3.462-10.206-7.059-13.921-12.08
				c-4.969-6.715-3.739-13.738-3.827-21.52c-0.057-5.033-2.417-9.007-5.458-12.821c-3.781-4.74-7.335-9.192-3.644-15.333
				c5.556-9.24,3.661-21.36,11.371-29.772c1.959-2.138,4.48-1.48,7.016-1.163c2.119,0.266,4.415-0.688,6.03-1.979
				c3.615-2.89,5.24-8.118,7.029-12.208c1.757-4.016,4.23-8.324,7.865-10.925c3.778-2.703,8.829-2.915,12.959-4.864
				c4.976-2.348,9.239-5.9,14.139-8.392c3.255-1.655,6.023-1.532,8.8,0.863c2.239,1.932,4.33,3.253,7.234,3.946
				c6.023,1.438,12.189-2.006,18.299-1.096c4.855,0.723,8.622,5.479,12.996,7.483c5.444,2.496,11.748,2.262,17.594,2.609
				c7.019,0.417,13.401,4.025,20.276,5.418c5.73,1.161,11.597,1.349,17.351,2.304c3.825,0.635,3.614,3.376,5.088,6.108
				c1.327,2.459,3.183,3.858,5.646,5.117c4.571,2.336,9.875,2.981,14.705,4.611c3.13,1.056,5.652,2.958,7.312,5.832
				c1.845,3.194,0.864,6.528,1.038,9.838c0.121,2.311,0.79,3.738,2.615,5.22c2.655,2.156,3.681,4.766,4.45,8.074
				c1.329,5.725-1.942,12.266-2.007,18.077c-0.08,7.096,2.606,13.998,3.198,21.032c0.631,7.497-2.005,15.182-3.161,22.53
				c-1.036,6.587-3.155,12.979-6.266,18.87c-3.636,6.883-8.791,11.118-15.548,14.706c-5.96,3.165-12.059,5.974-17.937,9.305
				c-5.947,3.369-11.99,6.44-18.641,8.142c-6.28,1.606-14.792,1.744-20.628-1.301c-4.969-2.592-9.16-5.145-14.722-2.532
				c-3.002,1.411-3.171,2.99-6.95,1.3c-2.508-1.121-4.763-2.73-7.316-3.768c-6.015-2.443-9.243-0.2-14.401,2.87
				c-0.439,0.174-0.878,0.349-1.317,0.522c-3.983,1.256-2.281,7.531,1.728,6.268c2.33-0.734,4.271-2.024,6.312-3.339
				c3.242-2.089,6.18,0.056,9.099,1.675c4.207,2.332,9.31,4.825,13.818,1.865c2.94-1.931,4.554-2.53,7.981-0.688
				c2.561,1.376,4.813,2.756,7.669,3.424c6.286,1.471,12.709,1.438,19.031,0.284c12.628-2.305,23.714-10.659,35.06-16.169
				c5.451-2.647,10.81-5.426,15.301-9.556c4.698-4.319,7.741-10.577,10.161-16.355c2.528-6.034,3.504-12.381,4.659-18.766
				c1.275-7.044,3.03-13.796,2.422-21.018c-0.598-7.104-3.113-13.845-3.032-21.032c0.064-5.736,2.847-11.013,1.944-16.85
				c-0.415-2.688-1.342-5.087-2.449-7.557c-0.35-0.781-4.481-5.208-4.366-5.675c1.187-4.811-0.725-11.035-3.633-14.95
				c-2.982-4.014-7.612-5.958-12.25-7.362c-2.575-0.779-5.21-1.351-7.791-2.113c-3.894-1.151-5.591-2.604-7.024-6.4
				c-1.738-4.603-5.655-6.256-10.224-6.836c-6.553-0.831-13.111-1.333-19.536-2.961c-6.085-1.542-11.313-4.141-17.664-4.663
				c-7.185-0.59-13.478-0.404-19.548-4.825c-3.552-2.586-6.89-5.062-11.464-5.343c-6.598-0.406-15.043,3.849-20.513-0.871
				c-9.523-8.217-18.568-0.754-27.375,4.691c-4.114,2.544-8.925,3.211-13.327,5.093c-3.906,1.67-6.57,4.394-9.115,7.728
				c-2.994,3.922-4.629,8.398-6.705,12.824c-1.006,2.146-2.089,5.218-4.896,5.264c-2.902,0.048-4.915-0.726-7.788,0.451
				c-7.867,3.224-11.868,15.653-12.999,23.329c-0.493,3.346-0.8,6.438-2.58,9.386c-1.289,2.135-2.33,4.018-2.828,6.49
				c-1.002,4.973,0.517,9.624,3.483,13.59c2.982,3.987,6.537,7.063,6.926,12.343c0.445,6.031-0.781,11.654,0.925,17.618
				c2.758,9.642,12.218,16.302,20.043,21.594c-0.498-1.223-0.996-2.447-1.494-3.67c-1.346,8.591-0.292,16.862,5.508,23.634
				c5.775,6.742,15.499,8.516,23.903,8.195c-0.547-2.019-1.094-4.038-1.64-6.056c-4.094,2.104-7.761,5.426-7.342,10.413
				c0.412,4.906,4.544,8.519,8.257,11.212c11.196,8.119,24.886,5.91,37.141,1.447C105.59,196.854,103.905,190.571,99.957,192.009
				L99.957,192.009z"/>
		</g>
	</g>
	<g>
		<path fill="#E71E25" d="M60.74,97.806c-7.437-6.638-18.456,7.983-9.546,17.196c7.637,7.37,19.092-3.685,21.001-11.055
			c1.273-5.528-4.073-13.086-10.437-8.174"/>
		<g>
			<path d="M63.038,95.508c-6.546-5.212-14.573-1.351-17.353,6.021c-2.888,7.658,1.28,18.887,10.621,19.128
				c8.656,0.223,15.966-7.471,18.792-15.07c3.417-9.189-6.678-18.198-14.98-12.619c-3.459,2.324-0.209,7.958,3.28,5.612
				c5.03-3.38,6.516,3.325,4.691,6.929c-1.978,3.907-5.676,7.417-9.945,8.558c-5.117,1.368-7.624-5.157-6.761-9.115
				c0.597-2.737,3.926-7.343,7.059-4.849C61.685,102.686,66.317,98.118,63.038,95.508L63.038,95.508z"/>
		</g>
	</g>
	<g>
		<path fill="#E71E25" d="M124.317,102.422c-5.907-11.973-24.284,20.752-1.313,21.55c16.407,0.797,20.127-29.934,0.986-23.194"/>
		<g>
			<path d="M127.123,100.782c-4.767-8.832-13.494-1.756-16.469,4.453c-4.058,8.469-2.214,18.631,7.703,21.379
				c10.438,2.893,19.699-4.343,21.481-14.57c1.896-10.885-6.299-17.792-16.711-14.399c-3.967,1.293-2.269,7.57,1.728,6.268
				c5.881-1.917,9.234,0.341,8.69,6.578c-0.541,6.193-5.529,10.52-11.571,10.173c-6.58-0.378-7.878-5.66-6.119-11.077
				c0.716-2.206,2.037-4.248,3.729-5.821c1.188-1.105,1.268-0.925,1.928,0.297C123.502,107.752,129.114,104.47,127.123,100.782
				L127.123,100.782z"/>
		</g>
	</g>
	<g>
		<path fill="#E71E25" d="M159.518,59.71c-2.886-7.612-8.554-1.485-10.427,3.652c-3.748,7.992-3.543,10.792,6.245,14.842
			c7.052,2.918,19.36-8.563,16.238-16.555c-1.874-4.567-10.824-10.536-13.323-4.256"/>
		<g>
			<path d="M162.324,58.07c-1.96-4.351-5.589-6.351-10.04-4.121c-4.337,2.173-6.424,8.214-7.946,12.433
				c-3.169,8.786,6.662,16.532,15.025,15.39c8.241-1.125,17.451-10.507,15.776-19.288c-1.491-7.816-14.854-16.405-19.695-6.729
				c-1.87,3.737,3.736,7.029,5.612,3.28c1.835-3.668,8.135,3.085,7.728,6.105c-0.622,4.613-5.21,8.718-9.444,10.052
				c-2.565,0.808-9.155-1.729-9.249-4.861c-0.062-2.067,1.387-4.265,2.133-6.104c0.443-1.092,1.04-2.055,1.686-3.032
				c1.287-1.945,1.904-1.834,2.801,0.156C158.431,65.167,164.031,61.859,162.324,58.07L162.324,58.07z"/>
		</g>
	</g>
	<g>
		<path fill="#E71E25" d="M98.088,148.176c-1.989-4.607-6.994-4.172-10.753,0.225c-9.023,8.062-2.256,19.056,8.271,19.056
			c24.174,0,9.129-30.302,0.465-21.824"/>
		<g>
			<path d="M100.895,146.536c-2.901-5.449-9.238-6.24-13.894-2.296c-4.796,4.062-7.9,8.971-6.779,15.397
				c1.973,11.303,17.641,13.473,25.961,8.482c13.63-8.176-0.445-35.585-12.41-24.784c-3.117,2.814,1.494,7.396,4.597,4.596
				c4.116-3.715,7.909,9.129,6.574,12.151c-2.127,4.813-10,4.941-14.026,3.093c-2.76-1.267-4.922-4.155-4.492-7.291
				c0.417-3.043,6.407-10.667,8.856-6.068C97.252,153.517,102.863,150.233,100.895,146.536L100.895,146.536z"/>
		</g>
	</g>
	<g>
		<path fill="#E71E25" d="M152.482,150.845c-2.075-12.471-22.941,3.809-10.32,17.573c5.68,5.899,19.684-2.242,21.577-8.797
			c1.893-7.21-4.417-16.387-11.359-11.798"/>
		<g>
			<path d="M155.616,149.981c-1.847-8.843-10.942-7.793-16.103-2.486c-6.827,7.02-5.804,19.145,2.296,24.754
				c7.767,5.379,20.311-2.833,24.178-9.614c5.458-9.571-4.731-23.58-15.248-17.618c-3.646,2.066-0.371,7.683,3.28,5.612
				c3.532-2.001,5.676,1.168,6.585,4.325c0.843,2.926-0.409,5.159-2.365,7.172c-2.747,2.828-10.043,7.393-13.78,3.993
				c-3.836-3.49-3.922-9.528-0.848-13.458c1.816-2.323,4.951-4.716,5.737-0.953C150.206,155.811,156.471,154.07,155.616,149.981
				L155.616,149.981z"/>
		</g>
	</g>
	<g>
		<path fill="#E71E25" d="M183.188,108.05c-3.673-9.754-29.849,15.118-7.08,21.389c8.814,2.09,16.485-4.709,16.485-13.071
			c0.692-7.871-5.74-12.817-10.484-6.967"/>
		<g>
			<path d="M185.995,106.41c-5.356-12.286-29.797,8.235-19.544,21.228c3.154,3.998,9.496,5.674,14.314,5.354
				c5.917-0.394,11.008-4.382,13.524-9.61c2.352-4.889,2.557-12.479-1.303-16.705c-3.914-4.285-9.401-3.683-13.174,0.426
				c-2.83,3.081,1.755,7.689,4.596,4.596c3.606-3.926,5.063,1.472,4.937,4.669c-0.149,3.766-1.901,6.84-5.079,8.869
				c-4.084,2.608-12.616,1.294-14.039-4.021c-0.889-3.324,2.281-7.085,4.433-9.18c1.338-1.303,4.921-4.185,5.723-2.345
				C182.054,113.525,187.652,110.212,185.995,106.41L185.995,106.41z"/>
		</g>
	</g>
	<g>
		<path fill="#E71E25" d="M86.604,51.25c-7.632-6.047-10.232,7.418-9.481,11.644c2.119,11.931,11.584,12.435,21.095,5.488
			c4.433-3.237,7.177-11.187,3.791-15.477c-6.773-7.967-14.909-3.733-14.727,2.636"/>
		<g>
			<path d="M88.244,48.444c-8.534-6.036-13.459,3.468-14.389,10.866c-1.295,10.299,6.68,18.293,16.761,16.366
				c10.147-1.94,20.849-14.202,14.199-24.411c-5.858-8.993-20.285-7.232-20.783,4.276c-0.182,4.192,6.319,4.175,6.5,0
				c0.307-7.084,9.802-2.541,9.711,2.98c-0.1,6.126-7.309,10.532-12.732,11.105c-5.271,0.557-7.409-5.105-7.227-9.481
				c0.122-2.916,1.028-8.67,4.68-6.088C88.395,56.483,91.637,50.843,88.244,48.444L88.244,48.444z"/>
		</g>
	</g>
</g>
</a>
<a xlink:href="bdm/saule/index2.php">
<g id="saule de devant"
onmouseover="
document.getElementById('sapin de devant').setAttribute('visibility', 'hidden');
document.getElementById('buisson de devant').setAttribute('visibility', 'hidden');
document.getElementById('pommier de devant').setAttribute('visibility', 'hidden');
"
onmouseout=
"
document.getElementById('sapin de devant').setAttribute('visibility', 'visible');
document.getElementById('buisson de devant').setAttribute('visibility', 'visible');
document.getElementById('pommier de devant').setAttribute('visibility', 'visible');
">
	<g>
		<path fill="#BE6128" d="M358.825,213.89c4.664,22.506-0.778,39.386-11.662,57.873c-6.221,12.057-9.33,24.113-11.663,37.777
			c-2.332,14.469,0.503,11.516-4.939,24.376c-0.777,0.804-6.204,3.758-8.277,6.704c19.696,8.039,12.958-14.599,26.176,6.169
			c3.109-4.019,4.146-5.901,4.924-11.527c8.552,0,15.809,7.234,24.361,3.216c-9.59-6.432-21.252-3.216-21.252-23.311
			c0-16.88,6.586-31.723,13.583-44.583c10.107-19.291,9.741-36.6,9.741-58.302"/>
		<g>
			<path d="M356.414,214.555c2.537,12.895,1.778,25.44-2.589,37.845c-4.224,11.995-11.623,22.403-15.614,34.557
				c-3.499,10.656-5.723,22.063-6.363,33.264c-0.18,3.141-0.927,5.936-2.019,8.886c-1.743,4.709-6.237,5.95-9.313,9.747
				c-1.245,1.536-0.748,3.464,1.103,4.179c5.172,1.996,10.919,2.995,15.686-0.468c0.654-0.476,3.008-2.302,2.66-2.353
				c2.503,0.366,5.173,6.035,6.337,7.84c1.1,1.706,3.18,1.496,4.316,0c2.908-3.823,4.444-7.363,5.177-12.124
				c-0.804,0.611-1.607,1.224-2.411,1.835c8.825,0.421,16.043,6.705,25.026,3.127c1.983-0.791,2.548-3.323,0.597-4.57
				c-5.602-3.58-14.061-4.206-17.819-10.129c-3.206-5.052-2.341-12.515-1.81-18.132c0.675-7.122,2.855-14.093,5.427-20.731
				c4.83-12.467,12.11-23.264,15.045-36.501c2.793-12.601,2.472-25.719,2.468-38.543c-0.001-3.225-5.001-3.225-5,0
				c0.005,14.064,0.189,28.179-3.421,41.884c-3.677,13.953-12.408,25.933-16.671,39.752c-3.227,10.458-6.144,25.674,0.139,35.573
				c4.182,6.589,12.994,7.23,19.119,11.146c0.199-1.523,0.398-3.047,0.597-4.57c-7.989,3.184-15.637-2.921-23.696-3.305
				c-1.009-0.048-2.25,0.79-2.411,1.835c-0.666,4.336-2.023,7.448-4.671,10.931c1.438,0,2.878,0,4.316,0
				c-2.329-3.612-6.86-12.407-12.549-9.776c-1.566,0.725-2.709,2.139-4.137,3.082c-3.328,2.202-7.627,0.672-10.983-0.624
				c0.367,1.394,0.735,2.786,1.103,4.179c2.299-2.837,7.531-4.481,8.921-7.807c1.561-3.738,3.195-7.521,3.65-11.582
				c1.326-11.835,2.839-23.269,6.41-34.714c4.104-13.152,12.279-24.37,16.6-37.444c4.037-12.217,4.069-25.088,1.604-37.616
				C360.613,210.063,355.795,211.405,356.414,214.555L356.414,214.555z"/>
		</g>
	</g>
	<g>
		<path fill="#8CC96C" d="M353.864,93.97c-25.332-4.019,10.133-77.164,38.506-76.36c36.478,0.804,29.385,61.892,29.385,75.556"/>
		<g>
			<path d="M354.529,91.559c-13.456-2.483-4.292-25.425-1.123-32.637c6.252-14.224,16.494-30.185,30.996-37.064
				c6.53-3.098,14.373-1.863,20.316,1.956c6.319,4.06,9.624,11.625,11.661,18.545c4.217,14.326,3.684,29.809,3.071,44.572
				c-0.086,2.077-0.187,4.155-0.196,6.235c-0.015,3.225,4.985,3.224,5,0c0.061-13.146,1.105-26.107-0.523-39.231
				c-1.719-13.85-6.319-30.179-20.176-36.441c-14.192-6.414-27.216,1.504-36.858,11.81c-10.924,11.677-19.486,27.15-22.946,42.799
				c-1.98,8.956-1.918,22.181,9.448,24.278C356.351,96.962,357.697,92.144,354.529,91.559L354.529,91.559z"/>
		</g>
	</g>
	<g>
		<path fill="#8CC96C" d="M394.996,128.644c0,0.711,0.842,2.844-0.843,1.422c-11.788-21.326-4.21-83.88,37.05-78.904
			c26.945,3.554,29.472,57.578,29.472,76.06"/>
		<g>
			<path d="M392.496,128.644c0.077,0.578,0.189,1.155,0.182,1.74c0.413-0.719,0.825-1.439,1.238-2.159
				c-0.097,0.049-0.193,0.099-0.29,0.148c0.841,0,1.683,0,2.523,0c-1.507-0.957-2.234-5.419-2.669-7.031
				c-0.906-3.368-1.376-6.836-1.652-10.307c-0.624-7.824,0.044-15.75,1.703-23.408c3.187-14.707,11.407-30.189,27.231-33.689
				c18.367-4.062,27.442,11.339,31.886,26.605c4.374,15.025,5.503,31.09,5.526,46.678c0.005,3.224,5.005,3.225,5,0
				c-0.024-16.079-1.37-32.476-5.705-48.007c-4.15-14.875-12.455-29.935-29.481-30.809c-34.9-1.792-44.81,43.631-40.202,70.27
				c0.589,3.403,2.964,16.769,8.653,13.866c0.779-0.397,1.228-1.314,1.238-2.159c0.008-0.603-0.103-1.147-0.182-1.74
				C397.078,125.496,392.072,125.455,392.496,128.644L392.496,128.644z"/>
		</g>
	</g>
	<g>
		<path fill="#8CC96C" d="M289.173,75.664c0.777-22.506,19.437-68.321,45.871-65.106c26.435,3.215,35.764,37.778,34.986,61.088"/>
		<g>
			<path d="M291.673,75.664c0.54-12.302,4.711-24.632,10.101-35.604c5.389-10.972,13.707-23.411,26.248-26.658
				c13.34-3.454,25.086,7.577,30.966,18.231c6.595,11.95,8.901,26.507,8.543,40.012c-0.086,3.226,4.914,3.218,5,0
				c0.396-14.939-2.534-30.411-9.796-43.569c-6.586-11.934-19.782-22.305-34.167-19.856c-13.694,2.332-23.094,14.682-29.425,26.086
				c-6.902,12.432-11.843,27.079-12.47,41.357C286.531,78.889,291.532,78.875,291.673,75.664L291.673,75.664z"/>
		</g>
	</g>
	<g>
		<path fill="#8CC96C" d="M263.194,110.26c-6.997-20.095,16.327-80.378,43.539-73.144c28.767,8.841,31.1,64.303,26.435,88.416"/>
		<g>
			<path d="M265.605,109.595c-4.389-13.432,2.064-30.781,7.706-42.877c5.268-11.294,16.148-29.724,31.13-27.546
				c16.265,2.366,22.873,23.64,25.636,37.089c3.217,15.666,3.638,32.856,0.68,48.606c-0.591,3.151,4.228,4.496,4.822,1.329
				c3.219-17.142,2.584-35.37-0.916-52.409c-3.24-15.776-10.702-33.655-27.265-39.082c-15.185-4.976-28.223,11.405-34.789,22.585
				c-8.111,13.81-14.602,31.95-12.947,48.196c0.188,1.851,0.544,3.671,1.121,5.438C261.78,113.975,266.609,112.669,265.605,109.595
				L265.605,109.595z"/>
		</g>
	</g>
	<g>
		<path fill="#8CC96C" d="M249.2,172.131c-16.327-32.125,6.997-95.456,40.429-97.291c40.429-1.836,34.209,67.92,34.209,97.291"/>
		<g>
			<path d="M251.359,170.869c-8.625-17.514-5.234-39.383,1.37-56.958c5.915-15.74,18.312-35.231,36.899-36.571
				c17.523-1.263,25.43,14.912,28.771,29.52c3.922,17.154,3.459,35.218,3.124,52.7c-0.08,4.19-0.179,8.38-0.186,12.571
				c-0.006,3.225,4.994,3.224,5,0c0.027-16.419,0.867-32.804-0.544-49.197c-1.285-14.926-4.045-32.538-15.434-43.378
				c-11.326-10.781-28.544-8.38-40.132,0.49c-14.652,11.217-22.934,30.009-26.764,47.595c-3.273,15.024-3.337,31.714,3.576,45.752
				C248.466,176.285,252.778,173.75,251.359,170.869L251.359,170.869z"/>
		</g>
	</g>
	<g>
		<path fill="#8CC96C" d="M262.676,218.035c-7.774-11.676,2.852-55.463,7.517-68.807c6.22-17.514,18.659-24.617,38.874-22.949
			c19.437,1.668,24.879,31.693,27.212,47.539c1.555,7.506,2.332,45.037,0.777,44.203"/>
		<g>
			<path d="M264.834,216.773c-4.066-6.58-2.505-16.671-1.741-23.918c1.079-10.238,3.271-20.395,5.814-30.359
				c2.164-8.48,4.438-17.384,10.151-24.244c7.052-8.465,18.142-10.121,28.543-9.579c20.087,1.047,23.998,30.54,26.266,45.81
				c1.071,7.212,1.213,14.578,1.406,21.858c0.173,6.556,0.953,13.903-0.272,20.396c-0.32,1.051,0.364,0.646,2.055-1.216
				c-3.202-0.355-3.168,4.648,0,5c6.215,0.689,2.884-33.835,2.646-37.693c-0.976-15.885-3.923-33.842-12.684-47.371
				c-4.938-7.625-11.9-11.393-20.855-11.859c-9.284-0.484-19.322,1.301-26.683,7.329c-13.551,11.098-16.534,32.725-19.487,48.94
				c-1.399,7.684-2.437,15.49-2.575,23.306c-0.095,5.343,0.211,11.45,3.1,16.123C262.208,222.033,266.535,219.524,264.834,216.773
				L264.834,216.773z"/>
		</g>
	</g>
	<g>
		<path fill="#8CC96C" d="M309.104,159.2c-13.218-38.582-8.553-90.828,34.986-108.511c43.539-17.683,54.424,78.771,37.319,104.492"
			/>
		<g>
			<path d="M311.515,158.536c-12.615-37.442-8.102-91.758,35.669-106.316c13.787-4.585,23.818,5.541,29.585,16.97
				c7.266,14.399,9.604,31.522,9.843,47.47c0.182,12.152-0.546,26.727-7.361,37.26c-1.757,2.716,2.573,5.22,4.318,2.523
				c7.149-11.051,8.06-26.044,8.051-38.809c-0.011-15.821-2.459-32.356-8.706-46.969c-4.744-11.098-12.936-23.038-25.972-24.459
				c-16.883-1.841-33.896,12.531-43.01,25.301c-17.857,25.023-16.651,60.423-7.239,88.358
				C307.717,162.903,312.547,161.6,311.515,158.536L311.515,158.536z"/>
		</g>
	</g>
	<g>
		<path fill="#8CC96C" d="M345.118,176.521c-25.361-19.291,11.271-97.258,48.844-89.221c34.754,8.038,34.754,73.948,24.421,96.454"
			/>
		<g>
			<path d="M346.886,174.754c-12.152-9.64-7.661-29.2-3.247-41.61c5.712-16.057,16.613-32.636,32.069-40.675
				c15.927-8.284,30.996,0.98,38.389,15.681c8.02,15.951,8.866,35.739,7.115,53.181c-0.715,7.124-2.046,14.587-4.987,21.163
				c-1.306,2.917,3.002,5.462,4.316,2.523c6.307-14.096,7.054-30.965,6.011-46.142c-1.112-16.198-5.218-34.355-17.313-46.036
				c-11.367-10.977-27.315-10.47-40.075-2.367c-14.278,9.068-24.061,24.865-29.979,40.348c-5.404,14.137-9.636,36.521,4.166,47.469
				C345.848,180.271,349.411,176.757,346.886,174.754L346.886,174.754z"/>
		</g>
	</g>
	<g>
		<path fill="#8CC96C" d="M410.32,196.5c-6.221-11.253-3.11-35.367,1.555-47.423c5.442-14.468,32.654-42.601,49.759-35.367
			c15.549,6.431,18.659,36.974,19.437,51.442c0.777,16.076,2.518,15.963,0.962,32.039"/>
		<g>
			<path d="M412.479,195.238c-4.07-7.891-3.477-17.818-2.589-26.38c0.82-7.91,2.551-16.3,6.446-23.306
				c7.238-13.018,21.463-27.389,36.55-30.301c17.195-3.318,22.203,21.877,24.1,33.815c1.267,7.973,1.433,16.021,2.133,24.048
				c0.714,8.181,1.174,15.851,0.414,24.077c-0.297,3.211,4.706,3.183,5,0c0.897-9.72-0.078-18.803-0.759-28.475
				c-0.639-9.069-1.25-18.038-3.041-26.976c-3.001-14.971-10.735-34.032-29.176-31.311c-8.43,1.244-16.099,6.917-22.399,12.288
				c-6.934,5.912-13.172,13.175-17.607,21.154c-4.184,7.523-5.661,16.554-6.66,24.986c-1.121,9.462-1.202,20.231,3.272,28.903
				C409.641,200.628,413.955,198.099,412.479,195.238L412.479,195.238z"/>
		</g>
	</g>
	<g>
		<path fill="#8CC96C" d="M302.57,229.025c-26.655-25.031,1.975-103.251,34.553-108.466c31.591-5.215,41.463,34.417,44.425,59.448
			c0.987,11.472,4.936,39.632-0.988,49.019"/>
		<g>
			<path d="M304.338,227.258c-12.457-12.087-10.881-32.703-7.429-48.172c3.932-17.614,12.28-35.924,25.794-48.241
				c6.069-5.531,13.167-8.472,21.416-8.216c9.494,0.295,16.887,6.721,21.853,14.295c10.138,15.465,12.3,35.125,14.058,53.074
				c0.668,6.819,1.184,13.655,1.223,20.51c0.032,5.609,0.053,12.26-2.852,17.256c-1.623,2.793,2.698,5.309,4.318,2.523
				c4.407-7.581,3.727-17.893,3.371-26.306c-0.389-9.197-1.251-18.507-2.51-27.628c-2.396-17.36-6.806-36.903-19.547-49.794
				c-11.521-11.656-29.539-11.342-42.045-1.588c-13.752,10.725-22.242,27.64-27.483,43.919c-6.132,19.048-9.632,46.447,6.298,61.902
				C303.116,233.038,306.655,229.506,304.338,227.258L304.338,227.258z"/>
		</g>
	</g>
	<g>
		<path fill="#8CC96C" d="M359.292,228.634c-5.442-2.438-6.22-23.559-5.442-30.87c3.109-25.184,19.437-53.616,45.871-56.865
			c35.764-5.687,35.685,38.23,32.396,68.925c-0.465,4.348-2.165,17.85-3.72,18.661"/>
		<g>
			<path d="M360.554,226.475c-2.61-1.474-3.039-6.599-3.496-9.215c-0.763-4.366-0.93-8.865-0.963-13.289
				c-0.068-9.008,2.26-17.847,5.55-26.181c7.586-19.218,24.307-35.923,46.201-34.822c17.778,0.894,21.928,21.399,22.888,35.617
				c0.576,8.553,0.149,17.168-0.577,25.698c-0.326,3.832-0.748,7.656-1.276,11.467c-0.327,2.362-0.363,9.274-2.251,10.968
				c-2.405,2.156,1.143,5.681,3.535,3.535c2.109-1.891,2.353-5.965,2.814-8.536c0.771-4.295,1.295-8.644,1.752-12.981
				c1.015-9.624,1.531-19.318,1.069-28.991c-0.731-15.322-4.483-34.149-20.515-40.309c-8.305-3.191-19.072-1.411-27.014,1.946
				c-9.829,4.154-17.501,11.447-23.556,20.111c-11.625,16.638-15.545,37.258-12.479,57.098c0.644,4.17,1.766,9.929,5.794,12.204
				C360.842,232.38,363.36,228.061,360.554,226.475L360.554,226.475z"/>
		</g>
	</g>
</g>
</a>
<a xlink:href="bdm/buisson.php">
<g id="buisson de devant"
onmouseover="
document.getElementById('saule de devant').setAttribute('visibility', 'hidden');
document.getElementById('sapin de devant').setAttribute('visibility', 'hidden');
document.getElementById('pommier de devant').setAttribute('visibility', 'hidden');
"
onmouseout=
"
document.getElementById('saule de devant').setAttribute('visibility', 'visible');
document.getElementById('sapin de devant').setAttribute('visibility', 'visible');
document.getElementById('pommier de devant').setAttribute('visibility', 'visible');
">
	<g>
		<path fill="#129447" d="M256.531,353.066c-6.061-7.322-6.061-0.915-9.523-0.915c-6.059,0-19.043,9.152-25.104,4.576
			c-5.193,3.661-6.924,0.915-12.117,0.915c-0.867,0-2.598-1.83-3.463-1.83s-6.061,1.83-6.061,1.83c-1.73,0-6.059,1.831-8.656,0.915
			c-4.328-0.915-6.059-8.237-9.521-9.152c-8.656-2.745-10.387,2.746-17.313,2.746c-7.791,0-9.994-5.855-20.48-5.928
			c-5.516-11.956-4.115-19.865-14.502-21.695c2.597-11.898,2.955-15.394,2.955-27.291c0-13.729-3.463-10.068-4.328-21.051
			c12.118-2.746,9.522-29.288,18.178-33.864c4.328-1.83,11.252-0.915,15.58-2.745c6.926-4.576,9.523-10.983,15.582-16.475
			c0.865,8.237,8.656,12.813,15.582,7.322c2.596,5.491,3.463,2.745,7.791,3.66c1.73,0,4.328-4.576,6.924-4.576
			c0,0,4.328,3.661,6.926,3.661c9.521-0.915,21.611,3.547,30.297-2.745c10.107-7.322,34.627,4.576,51.072,7.321
			c1.732,0,4.328-4.576,6.926-4.576c1.732,0,4.328,3.661,5.193,3.661h11.254c6.059,2.746,6.518,16.895,9.438,21.051
			c2.895,4.122,6.924,7.321,5.193,24.711c-0.865,9.152,8.742,26.542,3.547,32.033c-4.328,3.661-9.521,2.746-12.984,6.407
			c-2.596,3.661-3.463,11.898-7.791,16.475c-0.865,0.915-12.117,10.982-12.984,11.897c-5.193,0.915-11.252-4.576-15.58-2.745
			c-3.463,0.915-6.061,7.321-10.389,10.067c-4.328,1.83-10.387,0-13.85,1.83c0-1.83-1.732-3.661-1.732-5.491
			C260.859,353.981,259.129,353.981,256.531,353.066"/>
		<g>
			<path d="M258.299,351.299c-1.686-1.914-4.416-5.034-7.405-4.129c-2.125,0.645-3.127,2.277-5.343,2.617
				c-6.308,0.965-16.302,8.636-22.385,4.781c-0.73-0.462-1.792-0.457-2.523,0c-3.397,2.129-8.877,1.628-12.272-0.629
				c-2.186-1.452-5.237,0.098-7.392,0.818c-2.552,0.853-6.091,1.948-8.706,1.389c-3.405-0.728-4.7-6.129-7.433-8.069
				c-6.287-4.463-12.176-0.085-18.353,1.433c-3.962,0.974-7.697-1.475-11.056-3.146c-3.53-1.758-7.219-2.497-11.138-2.64
				c0.72,0.413,1.439,0.825,2.159,1.238c-4.018-9.04-4.628-20.455-15.997-22.845c0.582,1.025,1.164,2.051,1.746,3.076
				c2.153-9.959,3.144-19.527,3.023-29.724c-0.083-6.991-3.665-12.499-4.307-19.283c-0.612,0.804-1.224,1.607-1.835,2.411
				c11.189-3.113,11.852-18.779,14.826-27.894c0.808-2.475,1.942-5.477,4.593-6.406c4.097-1.437,8.858-0.854,13.099-1.875
				c7.659-1.842,12.58-12.473,17.926-17.553c-1.393-0.367-2.786-0.735-4.178-1.103c1.498,9.68,10.962,14.695,19.254,8.816
				c-1.14-0.3-2.28-0.599-3.42-0.897c1.63,3.174,3.377,5.007,7.076,4.726c1.549-0.118,3.403,0.604,4.824-0.365
				c1.83-1.25,3.399-3.674,5.639-4.127c-0.811-0.215-1.622-0.429-2.432-0.644c2.244,1.854,5.572,4.611,8.693,4.394
				c6.42-0.447,12.795,0.798,19.219,0.655c5.425-0.12,9.302-2.209,13.919-4.68c4.602-2.462,11.507-0.752,16.237,0.259
				c5.671,1.213,11.225,2.98,16.784,4.614c2.725,0.802,5.458,1.568,8.209,2.277c2.062,0.53,5.543,1.967,7.666,1.361
				c1.767-0.505,2.941-1.677,4.241-2.932c2.621-2.529,3.343,0.637,5.481,1.562c2.626,1.135,6.033,0.544,8.832,0.544
				c4.437,0,4.849,0.289,6.621,4.937c1.62,4.246,2.129,8.843,3.876,13.044c0.947,2.28,2.719,4.08,3.952,6.206
				c2.369,4.083,2.323,9.224,2.208,13.783c-0.132,5.211-0.41,9.534,0.779,14.654c1.247,5.371,3.27,10.615,3.872,16.121
				c0.739,6.756-6.178,6.835-10.959,9.077c-4.584,2.15-5.598,8.165-7.139,12.438c-1.891,5.242-5.546,8.139-9.52,11.74
				c-1.87,1.695-3.743,3.388-5.603,5.095c-1.598,1.467-3.439,0.177-6.342-0.908c-5.269-1.971-9.648-2.565-13.794,1.781
				c-3.037,3.184-4.682,7.322-9.597,7.785c-3.496,0.33-6.926-0.278-10.269,1.063c1.025,0.582,2.051,1.164,3.076,1.746
				c-0.379-1.921-1.352-3.557-1.732-5.491c-0.24-1.215-1.881-2.248-3.076-1.746c-1.669,0.702-3.034,0.51-4.729,0
				c-3.097-0.93-4.409,3.896-1.33,4.822c2.592,0.778,4.848,1.067,7.389,0c-1.025-0.582-2.051-1.164-3.076-1.746
				c0.379,1.921,1.352,3.557,1.732,5.491c0.243,1.23,1.874,2.228,3.076,1.746c4.983-2.001,10.885,0.493,15.494-2.84
				c4.591-3.32,6.335-10.739,13.028-8.702c2.951,0.897,9.517,4.619,12.398,1.746c2.45-2.442,5.11-4.695,7.673-7.018
				c2.207-2.001,4.863-3.944,6.579-6.419c1.479-2.134,2.502-4.408,3.441-6.816c1.261-3.228,1.699-7.444,4.841-9.449
				c4.131-2.635,9.727-2.03,12.466-6.834c1.941-3.404,0.897-8.111,0.149-11.688c-1.036-4.952-2.713-9.749-3.758-14.702
				c-1.228-5.816,0.273-11.855-0.246-17.768c-0.292-3.331-1.148-6.53-2.718-9.485c-1.405-2.647-3.409-4.56-4.343-7.482
				c-1.508-4.725-3.112-19.181-10.383-19.181c-3.188,0-6.377,0-9.565,0c-2.011,0-0.736,0.165-2.503-1.488
				c-1.296-1.213-3.058-2.463-4.932-2.084c-1.616,0.327-2.694,1.092-3.979,2.091c-2.729,2.124-3.154,2.257-6.641,1.447
				c-5.591-1.298-11.073-3.072-16.583-4.671c-8.718-2.529-19.349-6.007-28.354-2.922c-2.302,0.789-4.118,2.453-6.354,3.396
				c-2.972,1.251-6.334,1.28-9.501,1.24c-3.022-0.038-6.048-0.398-9.061-0.627c-2.759-0.209-6.351,0.531-8.846-0.65
				c-3.454-1.637-4.445-4.146-8.433-1.997c-1.677,0.903-2.854,3.435-4.827,3.352c-2.685-0.112-3.152,0.437-4.534-2.254
				c-0.583-1.136-2.351-1.655-3.42-0.897c-5.852,4.148-10.89,0.761-11.91-5.828c-0.302-1.955-2.947-2.272-4.178-1.103
				c-2.95,2.803-5.396,5.975-7.922,9.15c-3.607,4.537-6.976,7.362-12.916,7.901c-5.912,0.537-10.894,0.877-14.097,6.342
				c-2.724,4.647-3.587,10.435-4.93,15.575c-1.261,4.824-2.867,11.94-8.373,13.472c-0.996,0.277-1.939,1.316-1.835,2.411
				c0.592,6.249,3.815,11.497,4.247,17.714c0.704,10.133-0.65,20.094-2.784,29.963c-0.274,1.267,0.359,2.784,1.746,3.076
				c9.111,1.914,9.768,13.254,13.008,20.546c0.355,0.8,1.347,1.209,2.159,1.238c7.896,0.287,13.768,6.258,21.721,5.867
				c3.368-0.166,6.173-2.077,9.281-3.112c5.91-1.969,8.128,2.769,11.161,6.556c4.101,5.119,11.432,3.022,16.715,1.256
				c1.529-0.511,2.599-1.084,3.622-0.403c1.794,1.191,2.949,1.121,5.085,1.423c4.521,0.64,7.187,1.146,11.288-1.423
				c-0.841,0-1.682,0-2.523,0c5.906,3.742,13.398,0.139,19.176-2.121c2.766-1.082,5.833-1.284,8.503-2.283
				c1.034-0.386,1.806-0.863,2.666-1.549c1.729-1.376,2.417,0.358,3.776,1.9C256.898,357.258,260.422,353.708,258.299,351.299
				L258.299,351.299z"/>
		</g>
	</g>
	
		<ellipse fill="#3D0A38" stroke="#000000" stroke-width="5" stroke-miterlimit="10" cx="184.592" cy="273.941" rx="6.484" ry="6.825"/>
	
		<ellipse fill="#3D0A38" stroke="#000000" stroke-width="5" stroke-miterlimit="10" cx="211.028" cy="321.606" rx="6.483" ry="6.825"/>
	
		<ellipse fill="#3D0A38" stroke="#000000" stroke-width="5" stroke-miterlimit="10" cx="231.119" cy="267.117" rx="6.484" ry="6.826"/>
	
		<ellipse fill="#3D0A38" stroke="#000000" stroke-width="5" stroke-miterlimit="10" cx="290.089" cy="321.607" rx="6.483" ry="6.824"/>
	
		<ellipse fill="#3D0A38" stroke="#000000" stroke-width="5" stroke-miterlimit="10" cx="248.028" cy="301.133" rx="6.483" ry="6.825"/>
	
		<ellipse fill="#3D0A38" stroke="#000000" stroke-width="5" stroke-miterlimit="10" cx="287.96" cy="273.941" rx="6.483" ry="6.825"/>
	
		<ellipse fill="#3D0A38" stroke="#000000" stroke-width="5" stroke-miterlimit="10" cx="166.398" cy="307.958" rx="6.484" ry="6.825"/>
</g>
</a>
</svg>
